{
    "asset" : {
        "generator" : "Khronos glTF Blender I/O v1.8.19",
        "version" : "2.0"
    },
    "scene" : 0,
    "scenes" : [
        {
            "name" : "Scene",
            "nodes" : [
                0
            ]
        }
    ],
    "nodes" : [
        {
            "mesh" : 0,
            "name" : "\u5766\u514b09"
        }
    ],
    "materials" : [
        {
            "doubleSided" : true,
            "name" : "Material #255822",
            "pbrMetallicRoughness" : {
                "baseColorTexture" : {
                    "index" : 0
                },
                "metallicFactor" : 0.26771652698516846,
                "roughnessFactor" : 0.7677165269851685
            }
        },
        {
            "doubleSided" : true,
            "name" : "Material #2159.007",
            "pbrMetallicRoughness" : {
                "baseColorTexture" : {
                    "index" : 1
                },
                "metallicFactor" : 0,
                "roughnessFactor" : 0.7992125749588013
            }
        }
    ],
    "meshes" : [
        {
            "name" : "Obj3d66-1270365-9-174",
            "primitives" : [
                {
                    "attributes" : {
                        "POSITION" : 0,
                        "NORMAL" : 1,
                        "TEXCOORD_0" : 2,
                        "TEXCOORD_1" : 3,
                        "TEXCOORD_2" : 4,
                        "TEXCOORD_3" : 5,
                        "TEXCOORD_4" : 6,
                        "TEXCOORD_5" : 7,
                        "TEXCOORD_6" : 8,
                        "TEXCOORD_7" : 9
                    },
                    "indices" : 10,
                    "material" : 0
                },
                {
                    "attributes" : {
                        "POSITION" : 11,
                        "NORMAL" : 12,
                        "TEXCOORD_0" : 13,
                        "TEXCOORD_1" : 14,
                        "TEXCOORD_2" : 15,
                        "TEXCOORD_3" : 16,
                        "TEXCOORD_4" : 17,
                        "TEXCOORD_5" : 18,
                        "TEXCOORD_6" : 19,
                        "TEXCOORD_7" : 20
                    },
                    "indices" : 21,
                    "material" : 1
                }
            ]
        }
    ],
    "textures" : [
        {
            "sampler" : 0,
            "source" : 0
        },
        {
            "sampler" : 0,
            "source" : 1
        }
    ],
    "images" : [
        {
            "bufferView" : 11,
            "mimeType" : "image/jpeg",
            "name" : "Image_0"
        },
        {
            "bufferView" : 23,
            "mimeType" : "image/jpeg",
            "name" : "Image_1"
        }
    ],
    "accessors" : [
        {
            "bufferView" : 0,
            "componentType" : 5126,
            "count" : 10945,
            "max" : [
                1.1765803098678589,
                4.12602424621582,
                2.62172794342041
            ],
            "min" : [
                -1.1765803098678589,
                0.031972289085388184,
                -2.62172794342041
            ],
            "type" : "VEC3"
        },
        {
            "bufferView" : 1,
            "componentType" : 5126,
            "count" : 10945,
            "type" : "VEC3"
        },
        {
            "bufferView" : 2,
            "componentType" : 5126,
            "count" : 10945,
            "type" : "VEC2"
        },
        {
            "bufferView" : 3,
            "componentType" : 5126,
            "count" : 10945,
            "type" : "VEC2"
        },
        {
            "bufferView" : 4,
            "componentType" : 5126,
            "count" : 10945,
            "type" : "VEC2"
        },
        {
            "bufferView" : 5,
            "componentType" : 5126,
            "count" : 10945,
            "type" : "VEC2"
        },
        {
            "bufferView" : 6,
            "componentType" : 5126,
            "count" : 10945,
            "type" : "VEC2"
        },
        {
            "bufferView" : 7,
            "componentType" : 5126,
            "count" : 10945,
            "type" : "VEC2"
        },
        {
            "bufferView" : 8,
            "componentType" : 5126,
            "count" : 10945,
            "type" : "VEC2"
        },
        {
            "bufferView" : 9,
            "componentType" : 5126,
            "count" : 10945,
            "type" : "VEC2"
        },
        {
            "bufferView" : 10,
            "componentType" : 5123,
            "count" : 22386,
            "type" : "SCALAR"
        },
        {
            "bufferView" : 12,
            "componentType" : 5126,
            "count" : 772,
            "max" : [
                1.1286218166351318,
                1.0854592323303223,
                2.5625789165496826
            ],
            "min" : [
                -1.0295077562332153,
                0,
                -1.9455137252807617
            ],
            "type" : "VEC3"
        },
        {
            "bufferView" : 13,
            "componentType" : 5126,
            "count" : 772,
            "type" : "VEC3"
        },
        {
            "bufferView" : 14,
            "componentType" : 5126,
            "count" : 772,
            "type" : "VEC2"
        },
        {
            "bufferView" : 15,
            "componentType" : 5126,
            "count" : 772,
            "type" : "VEC2"
        },
        {
            "bufferView" : 16,
            "componentType" : 5126,
            "count" : 772,
            "type" : "VEC2"
        },
        {
            "bufferView" : 17,
            "componentType" : 5126,
            "count" : 772,
            "type" : "VEC2"
        },
        {
            "bufferView" : 18,
            "componentType" : 5126,
            "count" : 772,
            "type" : "VEC2"
        },
        {
            "bufferView" : 19,
            "componentType" : 5126,
            "count" : 772,
            "type" : "VEC2"
        },
        {
            "bufferView" : 20,
            "componentType" : 5126,
            "count" : 772,
            "type" : "VEC2"
        },
        {
            "bufferView" : 21,
            "componentType" : 5126,
            "count" : 772,
            "type" : "VEC2"
        },
        {
            "bufferView" : 22,
            "componentType" : 5123,
            "count" : 2208,
            "type" : "SCALAR"
        }
    ],
    "bufferViews" : [
        {
            "buffer" : 0,
            "byteLength" : 131340,
            "byteOffset" : 0
        },
        {
            "buffer" : 0,
            "byteLength" : 131340,
            "byteOffset" : 131340
        },
        {
            "buffer" : 0,
            "byteLength" : 87560,
            "byteOffset" : 262680
        },
        {
            "buffer" : 0,
            "byteLength" : 87560,
            "byteOffset" : 350240
        },
        {
            "buffer" : 0,
            "byteLength" : 87560,
            "byteOffset" : 437800
        },
        {
            "buffer" : 0,
            "byteLength" : 87560,
            "byteOffset" : 525360
        },
        {
            "buffer" : 0,
            "byteLength" : 87560,
            "byteOffset" : 612920
        },
        {
            "buffer" : 0,
            "byteLength" : 87560,
            "byteOffset" : 700480
        },
        {
            "buffer" : 0,
            "byteLength" : 87560,
            "byteOffset" : 788040
        },
        {
            "buffer" : 0,
            "byteLength" : 87560,
            "byteOffset" : 875600
        },
        {
            "buffer" : 0,
            "byteLength" : 44772,
            "byteOffset" : 963160
        },
        {
            "buffer" : 0,
            "byteLength" : 47226,
            "byteOffset" : 1007932
        },
        {
            "buffer" : 0,
            "byteLength" : 9264,
            "byteOffset" : 1055160
        },
        {
            "buffer" : 0,
            "byteLength" : 9264,
            "byteOffset" : 1064424
        },
        {
            "buffer" : 0,
            "byteLength" : 6176,
            "byteOffset" : 1073688
        },
        {
            "buffer" : 0,
            "byteLength" : 6176,
            "byteOffset" : 1079864
        },
        {
            "buffer" : 0,
            "byteLength" : 6176,
            "byteOffset" : 1086040
        },
        {
            "buffer" : 0,
            "byteLength" : 6176,
            "byteOffset" : 1092216
        },
        {
            "buffer" : 0,
            "byteLength" : 6176,
            "byteOffset" : 1098392
        },
        {
            "buffer" : 0,
            "byteLength" : 6176,
            "byteOffset" : 1104568
        },
        {
            "buffer" : 0,
            "byteLength" : 6176,
            "byteOffset" : 1110744
        },
        {
            "buffer" : 0,
            "byteLength" : 6176,
            "byteOffset" : 1116920
        },
        {
            "buffer" : 0,
            "byteLength" : 4416,
            "byteOffset" : 1123096
        },
        {
            "buffer" : 0,
            "byteLength" : 1411,
            "byteOffset" : 1127512
        }
    ],
    "samplers" : [
        {
            "magFilter" : 9729,
            "minFilter" : 9987
        }
    ],
    "buffers" : [
        {
            "byteLength" : 1128924,
            "uri" : "data:application/octet-stream;base64,"
        }
    ]
}
